<?xml version="1.0" encoding="utf-8"?>
<!-- Generator: Adobe Illustrator 19.0.0, SVG Export Plug-In . SVG Version: 6.00 Build 0)  -->
<svg version="1.1" id="Calque_1" xmlns="http://www.w3.org/2000/svg" xmlns:xlink="http://www.w3.org/1999/xlink" x="0px" y="0px"
	 viewBox="-180 106.6 559 200" style="enable-background:new -180 106.6 559 200;" xml:space="preserve">
<style type="text/css">
	.st0{fill-opacity:0;stroke:#000000;stroke-width:4;}
	.st1{font-family:'GiveYouGlory';}
	.st2{font-size:75px;}
	.st3{font-family:'MyriadPro-Regular';}
	.st4{font-size:39px;}
</style>
<g>
	<g>
		<g>
			<g>
				<g>
					<path id="b1ooJfNEg5" class="st0" d="M-109.8,224.3l18.2-7.5l-5.5,11.5l-7.3,5l4.3,4l-4.3,9.3l2.8,5l-13.8,16.5l-3.2-1.2
						l-1.7,3.7l-8,4.8l-2.7-6l-2.3,1.2v-4.2l-3.2-2.5l3.2-2l-1.5-3.8l13.1-4.9l-14.7,3.4"/>
				</g>
			</g>
		</g>
		<g>
			<g>
				<g>
					<path id="a1pMoNbM9r" class="st0" d="M-180,67.7"/>
				</g>
			</g>
		</g>
		<g>
			<g>
				<g>
					<path id="f1L3sBB0nt" class="st0" d="M-120.8,221.8l-10.5,5.5l-1.3,6.8l-10.7,12.5l6.8,9.5"/>
				</g>
			</g>
		</g>
		<g>
			<g>
				<g>
					<path id="bGyoaAfR9" class="st0" d="M-121.6,235.3l2.8-5.5l-9,4.3L-121.6,235.3z"/>
				</g>
			</g>
		</g>
		<g>
			<g>
				<g>
					<path id="d521lIy5e9" class="st0" d="M-120.8,221.8l-0.4-3.8v-4v-3.8l1.3-3.8l2.3-3l3-2.5l3.5-2.3l3.5-1.5l-1.5,3.5"/>
				</g>
			</g>
		</g>
		<g>
			<g>
				<g>
					<path id="bKwAioYMJ" class="st0" d="M-109.4,200.5l4.5-2l4-1l4.3-1l3.8-1l3.8-0.3h4.7l4.5,0.3l3.8,0.8l-3.5,1.5l-3.8,1.7l-4,2"
						/>
				</g>
			</g>
		</g>
		<g>
			<g>
				<g>
					<path id="bmuDt6qcR" class="st0" d="M-76.2,203.3l3.8,0.2l4,0.3l3.8,0.8l4,1.2l3.8,1.8l3.2,2l3.5,2.3l3,2.5l2.8,2.7h-3.8
						l-3.8-0.2l-3.8-0.2l-3.8,0.2l-4,0.5"/>
				</g>
			</g>
		</g>
		<g>
			<g>
				<g>
					<path id="b126RnUg5" class="st0" d="M-63.2,217.3l-3,2.5"/>
				</g>
			</g>
		</g>
		<g>
			<g>
				<g>
					<path id="bp2JoWqX4" class="st0" d="M-66.2,220.1l3.9-0.8l3.8,0.8l4,1l3.8,1.2l3.8,1.3"/>
				</g>
			</g>
		</g>
		<g>
			<g>
				<g>
					<path id="a39HvDZnA" class="st0" d="M-48.9,223l3.8,1l3.5,1.7"/>
				</g>
			</g>
		</g>
		<g>
			<g>
				<g>
					<path id="h3tsA7JWuF" class="st0" d="M-48.9,231.6l7.2-5.8"/>
				</g>
			</g>
		</g>
		<g>
			<g>
				<g>
					<path id="k8882afCn" class="st0" d="M-48.5,231.8l-4-0.2l-4,0.2l-4.3,1.5"/>
				</g>
			</g>
		</g>
		<g>
			<g>
				<g>
					<path id="aJ695I9QK" class="st0" d="M-60.3,233.1l-4,1.2l-3.8,1.3"/>
				</g>
			</g>
		</g>
		<g>
			<g>
				<g>
					<path id="a3cCtNZ6RU" class="st0" d="M-118.8,273.5l0.8,3.8l1.7,3.5l1.7,3.5l1.8,4l2.3,3l3,2.7l3.2,2.3l3.2,2"/>
				</g>
			</g>
		</g>
		<g>
			<g>
				<g>
					<path id="b28ipjrePR" class="st0" d="M-101.1,298.2l4.4,1l4.5,0.8l3.8,0.8"/>
				</g>
			</g>
		</g>
		<g>
			<g>
				<g>
					<path id="a3OwGvIdCw" class="st0" d="M-88.4,300.7l-1-3.8l0.2-3.8"/>
				</g>
			</g>
		</g>
		<g>
			<g>
				<g>
					<path id="e36aIkkl5" class="st0" d="M-89.4,293.2l-2.8-2.7l-2.3-3.5l-2-3.2l-1-3.8l-1-3.8"/>
				</g>
			</g>
		</g>
		<g>
			<g>
				<g>
					<path id="a117mDcZjD" class="st0" d="M-68,235.6l3.9,1.4l3.8,1.3l3,2.3l3.3,2.3l2.7,3l2.8,2.8l2,3.2l-3.8-0.8l-4-0.8l-4-0.8
						l-3.8-0.5l-3.8-0.5"/>
				</g>
			</g>
		</g>
		<g>
			<g>
				<g>
					<path id="a9HqwyxHQ" class="st0" d="M-86.7,201l-3.2,2h4h4h4l3.8,0.2"/>
				</g>
			</g>
		</g>
		<g>
			<g>
				<g>
					<path id="e2aVlsMAfe" class="st0" d="M-65.4,248.7l-4-0.5l-3.8-0.5H-77l-4-0.3"/>
				</g>
			</g>
		</g>
		<g>
			<g>
				<g>
					<path id="ayyIfqL5C" class="st0" d="M-98.4,276.5l4,1.5l4,0.8l4.3,1l4.3,0.8l4,0.3l3.8,0.5l-3.5-2.3l-3.8-1.7l-2.3-3l-2-3.5
						l-1.5-3.5l-1.3-3.8"/>
				</g>
			</g>
		</g>
		<g>
			<g>
				<g>
					<path id="b1McfEPTtn" class="st0" d="M-80.4,247.5l2.5,3l4,1.8l3.3,2l3.8,2l3.8,1.7l4,2l3.8,1.3l3.8,1"/>
				</g>
			</g>
		</g>
		<g>
			<g>
				<g>
					<path id="a5vcbavRaL" class="st0" d="M-51.7,262.2l-3.2,2l-3,2.3l-3.5,2l-3.8,1.8l-3.5,1.5"/>
				</g>
			</g>
		</g>
		<g>
			<g>
				<g>
					<path id="c2MnSZA9zd" class="st0" d="M-180,67.7"/>
				</g>
			</g>
		</g>
		<g>
			<g>
				<g>
					<path id="b58lD1kKcj" class="st0" d="M-86.2,264.5l3.3,2l3.2,2.3l3.8,1.5l3.8,1l3.8,0.5"/>
				</g>
			</g>
		</g>
		<g>
			<g>
				<g>
					<path id="a8YHg5Q5t" class="st0" d="M-88.4,264l3.3,1"/>
				</g>
			</g>
		</g>
		<g>
			<g>
				<g>
					<path id="n5DEPiIN6r" class="st0" d="M-180,67.7"/>
				</g>
			</g>
		</g>
		<g>
			<g>
				<g>
					<path id="b657xA3ZK0" class="st0" d="M-86.8,212.7l-24.6,7.5l1.5,4.2"/>
				</g>
			</g>
		</g>
		<g>
			<g>
				<g>
					<path id="cz9gNG9gx" class="st0" d="M-118.8,273.5l0.9-2.4h3.9l17.9-16.2l-4-8l5.4-8.5l-3.7-5l3.7-2.3l7.9-18.4"/>
				</g>
			</g>
		</g>
	</g>
	<g>
		<g>
			<g>
				<path id="j1nXRuKzd0" class="st0" d="M-150.6,198.5l3.5,0.5l-2.6,2.5l0.6,3.5l-3.2-1.7l-3.2,1.7l0.6-3.5l-2.6-2.5l3.5-0.5
					l1.6-3.2L-150.6,198.5z"/>
			</g>
		</g>
	</g>
	<g>
		<g>
			<g>
				<path id="a3VE7e7gOs" class="st0" d="M-162.6,212.1l3.5,0.5l-2.6,2.5l0.6,3.5l-3.2-1.7l-3.2,1.7l0.6-3.5l-2.6-2.5l3.5-0.5
					l1.6-3.2L-162.6,212.1z"/>
			</g>
		</g>
	</g>
	<g>
		<g>
			<g>
				<path id="aGWqODSdZ" class="st0" d="M-141.7,214.9l3.5,0.5l-2.6,2.5l0.6,3.5l-3.2-1.7l-3.2,1.7l0.6-3.5l-2.6-2.5l3.5-0.5
					l1.6-3.2L-141.7,214.9z"/>
			</g>
		</g>
	</g>
	<g>
		<g>
			<g>
				<path id="a1p9wPWHr2" class="st0" d="M-155.7,228.6l3.5,0.5l-2.6,2.5l0.6,3.5l-3.2-1.7l-3.2,1.7l0.6-3.5l-2.6-2.5l3.5-0.5
					l1.6-3.2L-155.7,228.6z"/>
			</g>
		</g>
	</g>
	<g id="hFSYv5ap">
		<g>
			<text transform="matrix(1 0 0 1 -27.7979 182.8805)" class="st1 st2">ETOILE</text>
		</g>
	</g>
	<g id="f3asRTFZUW">
		<g>
			<text transform="matrix(1 0 0 1 -44.1348 262.4615)" class="st3 st4">Metropole du Grand Lyon</text>
		</g>
	</g>
</g>
</svg>
